<svg width="221" height="452" viewBox="0 0 221 452" fill="none" xmlns="http://www.w3.org/2000/svg">
<g clip-path="url(#clip0_47_46)">
<path d="M157.7 46.8002C157.7 72.8002 136.6 93.9002 110.6 93.9002C84.6 93.9002 63.5 72.8002 63.5 46.8002C63.5 20.8002 84.6 -0.299805 110.6 -0.299805C136.6 -0.199805 157.7 20.8002 157.7 46.8002Z" fill="#DDDDDD"/>
<path d="M215.3 256.6L178.8 117.9C178.8 117.8 178.8 117.8 178.7 117.7C177.5 111.5 172.1 107 165.8 107H55.4002C49.1002 107 43.7002 111.5 42.5002 117.7C42.5002 117.7 42.5002 117.8 42.4002 117.9L5.90023 256.6C3.90023 264.4 8.50023 272.3 16.3002 274.4C24.1002 276.4 32.0002 271.8 34.1002 264L63.6002 151.8V214.5L34.8002 323.6H63.5002V433.5C63.5002 443.7 71.8002 452 82.0002 452C92.2002 452 100.5 443.7 100.5 433.5V323.8H120.6V433.5C120.6 443.7 128.9 452 139.1 452C149.3 452 157.6 443.7 157.6 433.5V323.8H186.3L157.6 214.7V151.8L187.2 264C189.2 271.8 197.2 276.4 205 274.4C212.7 272.3 217.3 264.3 215.3 256.6Z" fill="#DDDDDD"/>
<mask id="mask0_47_46" style="mask-type:alpha" maskUnits="userSpaceOnUse" x="0" y="-48" width="222" height="500">
<path d="M157.7 46.8002C157.7 72.8002 136.6 93.9002 110.6 93.9002C84.6 93.9002 63.5 72.8002 63.5 46.8002C63.5 20.8002 84.6 -0.299805 110.6 -0.299805C136.6 -0.199805 157.7 20.8002 157.7 46.8002Z" fill="#DDDDDD"/>
<path d="M215.3 256.6L178.8 117.9C178.8 117.8 178.8 117.8 178.7 117.7C177.5 111.5 172.1 107 165.8 107H55.4002C49.1002 107 43.7002 111.5 42.5002 117.7C42.5002 117.7 42.5002 117.8 42.4002 117.9L5.90023 256.6C3.90023 264.4 8.50023 272.3 16.3002 274.4C24.1002 276.4 32.0002 271.8 34.1002 264L63.6002 151.8V214.5L34.8002 323.6H63.5002V433.5C63.5002 443.7 71.8002 452 82.0002 452C92.2002 452 100.5 443.7 100.5 433.5V323.8H120.6V433.5C120.6 443.7 128.9 452 139.1 452C149.3 452 157.6 443.7 157.6 433.5V323.8H186.3L157.6 214.7V151.8L187.2 264C189.2 271.8 197.2 276.4 205 274.4C212.7 272.3 217.3 264.3 215.3 256.6Z" fill="#DDDDDD"/>
</mask>
<g mask="url(#mask0_47_46)">
<rect x="-5" width="231" height="452" fill="#DDDDDD"/>
</g>
</g>
<defs>
<clipPath id="clip0_47_46">
<rect width="221" height="452" fill="white"/>
</clipPath>
</defs>
</svg>
