<svg xmlns="http://www.w3.org/2000/svg" xmlns:xlink="http://www.w3.org/1999/xlink" viewBox="0,0,256,256" width="96px" height="96px" fill-rule="nonzero"><g fill="none" fill-rule="nonzero" stroke="none" stroke-width="1" stroke-linecap="butt" stroke-linejoin="miter" stroke-miterlimit="10" stroke-dasharray="" stroke-dashoffset="0" font-family="none" font-weight="none" font-size="none" text-anchor="none" style="mix-blend-mode: normal"><g transform="scale(5.33333,5.33333)"><path d="M39.6,27.2c0.1,-0.7 0.2,-1.4 0.2,-2.2c0,-0.8 -0.1,-1.5 -0.2,-2.2l4.5,-3.2c0.4,-0.3 0.6,-0.9 0.3,-1.4l-4.4,-7.4c-0.3,-0.5 -0.8,-0.7 -1.3,-0.4l-5,2.3c-1.2,-0.9 -2.4,-1.6 -3.8,-2.2l-0.5,-5.5c-0.1,-0.5 -0.5,-0.9 -1,-0.9h-8.6c-0.5,0 -1,0.4 -1,0.9l-0.5,5.5c-1.4,0.6 -2.7,1.3 -3.8,2.2l-5,-2.3c-0.5,-0.2 -1.1,0 -1.3,0.4l-4.3,7.4c-0.3,0.5 -0.1,1.1 0.3,1.4l4.5,3.2c-0.1,0.7 -0.2,1.4 -0.2,2.2c0,0.8 0.1,1.5 0.2,2.2l-4.7,3.2c-0.4,0.3 -0.6,0.9 -0.3,1.4l4.3,7.4c0.3,0.5 0.8,0.7 1.3,0.4l5,-2.3c1.2,0.9 2.4,1.6 3.8,2.2l0.5,5.5c0.1,0.5 0.5,0.9 1,0.9h8.6c0.5,0 1,-0.4 1,-0.9l0.5,-5.5c1.4,-0.6 2.7,-1.3 3.8,-2.2l5,2.3c0.5,0.2 1.1,0 1.3,-0.4l4.3,-7.4c0.3,-0.5 0.1,-1.1 -0.3,-1.4zM24,35c-5.5,0 -10,-4.5 -10,-10c0,-5.5 4.5,-10 10,-10c5.5,0 10,4.5 10,10c0,5.5 -4.5,10 -10,10z" fill="#939393"></path><path d="M24,13c-6.6,0 -12,5.4 -12,12c0,6.6 5.4,12 12,12c6.6,0 12,-5.4 12,-12c0,-6.6 -5.4,-12 -12,-12zM24,30c-2.8,0 -5,-2.2 -5,-5c0,-2.8 2.2,-5 5,-5c2.8,0 5,2.2 5,5c0,2.8 -2.2,5 -5,5z" fill="#455a64"></path></g></g></svg>